<svg xmlns="http://www.w3.org/2000/svg" xmlns:xlink="http://www.w3.org/1999/xlink" width="57" height="49" viewBox="0 0 57 49" fill="none"><path id="M" fill-rule="evenodd" style="fill:#1EAAE7" transform="translate(0.0077734375000000355 0.007653808593772737)  rotate(0 28.98 25.2)" opacity="1" d="M39.98,4.92L35.23,16.54C34.91,17.44 34.51,18.3 34.02,19.12C31.06,23.6 23.87,23.2 21.67,17.88L16.3,4.9C16.15,4.51 15.99,4.13 15.8,3.75C14.6,1.46 12.21,0 9.56,0L7.87,0C7.31,-0.02 6.74,0 6.18,0.05C3.03,0.43 0.42,2.97 0.05,6.15C0,6.69 -0.02,7.22 0,7.75L0,41.82C-0.02,42.39 0,42.97 0.06,43.54C0.48,46.44 3,48.66 6.04,48.66L6.78,48.66C7.27,48.68 7.77,48.66 8.26,48.6C10.43,48.25 12.09,46.39 12.09,44.14C12.09,39.12 19.13,37.85 20.92,42.55L21.78,44.79C21.92,45.19 22.08,45.58 22.27,45.97C23.15,47.61 24.89,48.66 26.8,48.66L28.86,48.66C29.28,48.67 29.7,48.66 30.12,48.62C31.98,48.39 33.58,47.17 34.26,45.4L34.79,43.99C35.07,43.02 35.51,42.1 36.08,41.27C38.55,38.23 44.11,39.72 44.11,44.17C44.11,46.65 46.15,48.66 48.65,48.66L49.41,48.66C49.91,48.68 50.41,48.66 50.91,48.62C53.89,48.25 56.2,45.73 56.2,42.68L56.2,7.81C56.22,7.24 56.2,6.66 56.15,6.09C55.72,2.66 52.76,0 49.18,0L47.35,0C46.94,-0.01 46.52,0 46.11,0.03C43.74,0.23 41.56,1.67 40.46,3.82C40.29,4.16 40.14,4.52 40,4.88Z " /></svg>