<svg viewBox="0 0 400 300" fill="none" xmlns="http://www.w3.org/2000/svg"><path opacity=".6" d="M315 201.82c-11.65-4.56-1.395-35.89 2.905-54.035 14.5-61.285-.655-92.465-32.295-96.4-48.81-6.075-77.5 32.205-134.265 57.5-19.885 8.86-8.7 2.38-47.83 9.465-66.14 12-44.08 85.555-14.165 114.74 19.38 18.91 17.21 23.41 13.56 29.98 15.57 0 177.6.035 177.6.035 25.675-13.585 56.525-1.92 71.67-11.41 24.515-15.37-.895-35.695-37.18-49.875Z" fill="#DFE8FC"/><path d="M257.54 75.13h-93.675v162.415h93.675V75.13Z" fill="#F5F8FE"/><path d="M167.315 74.875h-3.555V238.03h3.555V74.875Z" fill="#EAEEF4"/><path d="M363.68 154.845H245.56a7.28 7.28 0 0 0-7.28 7.28v66.115a7.28 7.28 0 0 0 7.28 7.28h118.12a7.28 7.28 0 0 0 7.28-7.28v-66.115a7.28 7.28 0 0 0-7.28-7.28Z" fill="#A1BEF7" style="mix-blend-mode:multiply" opacity=".87"/><path d="M359.16 145.45H239.735a6.96 6.96 0 0 0-6.96 6.96v70.555a6.96 6.96 0 0 0 6.96 6.96H359.16a6.96 6.96 0 0 0 6.96-6.96V152.41a6.96 6.96 0 0 0-6.96-6.96Z" fill="#F5F8FE" stroke="#231815" stroke-width=".43" stroke-miterlimit="10"/><path d="M291.815 198.305h-43.27a3.13 3.13 0 0 0-3.13 3.13v17.245a3.13 3.13 0 0 0 3.13 3.13h43.27a3.13 3.13 0 0 0 3.13-3.13v-17.245a3.13 3.13 0 0 0-3.13-3.13Z" fill="#E1E5EA"/><path d="M287.565 192.675h-39.32a4.05 4.05 0 0 0-4.05 4.05v17.965a4.05 4.05 0 0 0 4.05 4.05h39.32a4.05 4.05 0 0 0 4.05-4.05v-17.965a4.05 4.05 0 0 0-4.05-4.05Z" fill="#fff" stroke="#231815" stroke-width=".29" stroke-miterlimit="10"/><path d="M236.515 154.8h107.6" stroke="#231815" stroke-width=".255" stroke-miterlimit="10"/><path d="M290.275 164.72H245.65a2.02 2.02 0 1 0 0 4.04h44.625a2.02 2.02 0 0 0 0-4.04ZM290.275 172.74H245.65a2.02 2.02 0 1 0 0 4.04h44.625a2.02 2.02 0 0 0 0-4.04ZM290.275 181.74H245.65a2.02 2.02 0 1 0 0 4.04h44.625a2.02 2.02 0 0 0 0-4.04Z" fill="#E1E5EA"/><path d="M262.15 200.1h-12.01a1.87 1.87 0 0 0-1.87 1.87v10.155a1.87 1.87 0 0 0 1.87 1.87h12.01a1.87 1.87 0 0 0 1.87-1.87V201.97a1.87 1.87 0 0 0-1.87-1.87Z" fill="#49E5DB" stroke="#231815" stroke-width=".285" stroke-miterlimit="10"/><path d="m249.8 213.845 3.005-4.37 3.97 1.795 7.175-6.15" stroke="#000" stroke-width=".43" stroke-miterlimit="10"/><path d="M256.07 206.57a1.825 1.825 0 1 0 0-3.65 1.825 1.825 0 0 0 0 3.65Z" fill="#fff" stroke="#000" stroke-width=".43" stroke-miterlimit="10"/><path d="M365.895 154.76H232.79v-1.04c0-6.77 3.06-8.175 7.815-8.175h119.21a6.002 6.002 0 0 1 6 5.86l.08 3.355Z" fill="#2F54EB" stroke="#231815" stroke-width=".285" stroke-miterlimit="10"/><path d="M315.595 165.66h32.48M315.595 169.905h15.69M315.595 174.15h32.48M315.595 178.4h24.625" stroke="#231815" stroke-width=".43" stroke-miterlimit="10"/><path d="M246.835 103.42s-7.88 12.395-13.405 21.255c-7.46 11.97 2.055 22 26.305 22l39.445.335-1.18 12.18 14-.185.06.025s17.545 1.815 17-11.12c-.54-12.565-14.47-32.575-36.75-33.135-22.28-.56-29.63 2.65-29.63 2.65l2.915-6.465-18.76-7.54Z" fill="#49E5DB" stroke="#231815" stroke-width=".43" stroke-miterlimit="10"/><path d="m262.45 117.29-8.03 13.865" stroke="#231815" stroke-width=".45" stroke-miterlimit="10"/><path d="m273.23 124.955-9.32 31.05 20.17.185 9.235-30.87-20.085-.365Z" fill="#fff" stroke="#231815" stroke-width=".405" stroke-miterlimit="10"/><path d="M253.77 146.54s4.915.5 8.33-.17M300.005 139.335l10.09.03" stroke="#231815" stroke-width=".45" stroke-miterlimit="10"/><path d="m300 139.335-1.76 16.525s-6.17-3.085-11.31-3.82c-5.14-.735-10.43-1.47-13.58-4.04-3.15-2.57-3.85-5.15-2.35-6.225 0 0-2.135-3.325 1.095-4.46 0 0-.73-4.5 3.5-3.14 0 0 .68-3.14 4.32-.865 3.64 2.275 6.83 4.55 8.875 3.05s2.05-4 2.96-5.235c.91-1.235 1.635-1.685 3.275-1.365 1.64.32 2.095 1.91 1.64 3.915-.455 2.005-1.1 5.545 3.335 5.66Z" fill="#F9D3DC" stroke="#231815" stroke-width=".405" stroke-miterlimit="10"/><path d="M275.6 134.175s-.41 4.96 8.465 7.37M272.095 137.315s-.455 5.095 9.235 8M271 141.775s.41 3.095 6.6 5.595" stroke="#231815" stroke-width=".45" stroke-miterlimit="10"/><path d="m277.65 115.065.31-7.05s-7.335 1.5-6.125-8c.965-7.54 6.28-7.67 6.28-7.67s5.045 5.86 7.56 6.32c0 0 3.5-2.37 5.295.32 2.725 4.04-1.875 5.435-3.065 5.695l-.205 10.525s-.31 3.7-5.24 3.5c-5.24-.205-4.81-3.64-4.81-3.64Z" fill="#F9D3DC" stroke="#231815" stroke-width=".405" stroke-miterlimit="10"/><path d="M287.92 110.28s6.705-4.435 5.965-11.105c-.74-6.67-5.72-12.5-15.74-9.91-3.28.84-4.66 2.205-5.61 4.685a1.003 1.003 0 0 0 .435 1.325L279 93.5l7.255 7.34s1.41-3.38 3.965-1.815c2.07 1.27.915 5.5-2.705 5.47l.405 5.785Z" fill="#231815"/><path d="M291.125 92.615a4.89 4.89 0 1 0 0-9.78 4.89 4.89 0 0 0 0 9.78Z" fill="#231815"/><path d="M246.835 103.42s5.255-6.38 7.12-9.385c1.865-3.005 4.095-9.07 5.08-10.5.985-1.43 1.97-1.605 2.85-1.5.88.105 3.315 1.5-.05 6.425 0 0 4.405-3.68 6.375 0 0 0 3.525-2.175 4.87 2.28 0 0 5.08 1.195 4.565 3.785-.515 2.59-4.875.055-4.875.055s-.88 1.45-2.125 1.19a1.972 1.972 0 0 1-1.5-1.4s-2.64.62-2.28 2.745c.36 2.125 2.685 2 4 2 1.66 0 3.27.57 3.115 2.33-.155 1.76-1.92 2.335-4.255 2.125-2.335-.21-4.17.28-7.215 6.39l-15.675-6.54Z" fill="#F9D3DC" stroke="#231815" stroke-width=".405" stroke-miterlimit="10"/><path d="M260.4 91.105s.24-1.175 1.925-3.285l-1.925 3.285Z" fill="#F9D3DC"/><path d="M260.4 91.105s.24-1.175 1.925-3.285" stroke="#231815" stroke-width=".405" stroke-miterlimit="10"/><path d="M268.21 88.435s.705.77.68 2.64c-.025 1.87-1.415 2.645-2.565 2.325a3.394 3.394 0 0 1-2.425-2.565" fill="#F9D3DC"/><path d="M268.21 88.435s.705.77.68 2.64c-.025 1.87-1.415 2.645-2.565 2.325a3.394 3.394 0 0 1-2.425-2.565" stroke="#231815" stroke-width=".405" stroke-miterlimit="10"/><path d="M273.08 90.715s.395 2.4-.31 3.84c-.705 1.44-1.73 1.375-2.125 1.19-.395-.185-2-.56-2.075-3.47" fill="#F9D3DC"/><path d="M273.08 90.715s.395 2.4-.31 3.84c-.705 1.44-1.73 1.375-2.125 1.19-.395-.185-2-.56-2.075-3.47" stroke="#231815" stroke-width=".405" stroke-miterlimit="10"/><path d="M275.438 97.765c.272-1.261-.311-2.456-1.301-2.67-.991-.213-2.014.635-2.286 1.896-.272 1.26.31 2.456 1.301 2.67.991.213 2.014-.636 2.286-1.896ZM280.345 99.561c.272-1.26-.315-2.456-1.311-2.671-.996-.215-2.024.633-2.296 1.893-.272 1.261.316 2.457 1.312 2.672.996.215 2.024-.633 2.295-1.894Z" fill="#fff" stroke="#231815" stroke-width=".39" stroke-miterlimit="10"/><path d="M277.96 108s1.725.065 3.89-2c0 0-2.245 5-4 6.5l.11-4.5ZM287.5 104.5s-2.775 2.715-3.68 8.135c-.905 5.42 5.11 10.635 11.525 9.87 7.89-.935 13.475-5.455 10.35-11.5s-11.79-3.47-11.855-9.5c-.01-2.005-1.34 4.995-6.34 2.995ZM300.005 139.335l-5.27 14.975 3.52 1.4 1.75-16.375Z" fill="#231815"/><g style="mix-blend-mode:multiply"><g style="mix-blend-mode:multiply" opacity=".59"><path d="M220.04 234.68a.61.61 0 1 0 0-1.22.61.61 0 0 0 0 1.22ZM220.04 237.035a.61.61 0 1 0 0-1.22.61.61 0 0 0 0 1.22ZM220.04 239.39a.61.61 0 1 0 0-1.22.61.61 0 0 0 0 1.22ZM220.04 241.75a.61.61 0 1 0 0-1.22.61.61 0 0 0 0 1.22ZM220.04 244.105a.61.61 0 1 0 0-1.22.61.61 0 0 0 0 1.22ZM220.04 246.46a.61.61 0 1 0 0-1.22.61.61 0 0 0 0 1.22ZM220.04 248.815a.61.61 0 1 0 0-1.22.61.61 0 0 0 0 1.22ZM220.04 251.17a.61.61 0 1 0 0-1.22.61.61 0 0 0 0 1.22ZM220.04 253.525a.61.61 0 1 0 0-1.22.61.61 0 0 0 0 1.22ZM217.97 234.68a.61.61 0 1 0 0-1.22.61.61 0 0 0 0 1.22ZM217.97 237.035a.61.61 0 1 0 0-1.22.61.61 0 0 0 0 1.22ZM217.97 239.39a.61.61 0 1 0 0-1.22.61.61 0 0 0 0 1.22ZM217.97 241.75a.61.61 0 1 0 0-1.22.61.61 0 0 0 0 1.22ZM217.97 244.105a.61.61 0 1 0 0-1.22.61.61 0 0 0 0 1.22ZM217.97 246.46a.61.61 0 1 0 0-1.22.61.61 0 0 0 0 1.22ZM217.97 248.815a.61.61 0 1 0 0-1.22.61.61 0 0 0 0 1.22ZM217.97 251.17a.61.61 0 1 0 0-1.22.61.61 0 0 0 0 1.22ZM217.97 253.525a.61.61 0 1 0 0-1.22.61.61 0 0 0 0 1.22ZM215.9 234.68a.61.61 0 1 0 0-1.22.61.61 0 0 0 0 1.22ZM215.9 237.035a.61.61 0 1 0 0-1.22.61.61 0 0 0 0 1.22ZM215.9 239.39a.61.61 0 1 0 0-1.22.61.61 0 0 0 0 1.22ZM215.9 241.75a.61.61 0 1 0 0-1.22.61.61 0 0 0 0 1.22ZM215.9 244.105a.61.61 0 1 0 0-1.22.61.61 0 0 0 0 1.22ZM215.9 246.46a.61.61 0 1 0 0-1.22.61.61 0 0 0 0 1.22ZM215.9 248.815a.61.61 0 1 0 0-1.22.61.61 0 0 0 0 1.22ZM215.9 251.17a.61.61 0 1 0 0-1.22.61.61 0 0 0 0 1.22ZM215.9 253.525a.61.61 0 1 0 0-1.22.61.61 0 0 0 0 1.22ZM213.83 234.68a.61.61 0 1 0 0-1.22.61.61 0 0 0 0 1.22ZM213.83 237.035a.61.61 0 1 0 0-1.22.61.61 0 0 0 0 1.22ZM213.83 239.39a.61.61 0 1 0 0-1.22.61.61 0 0 0 0 1.22ZM213.83 241.75a.61.61 0 1 0 0-1.22.61.61 0 0 0 0 1.22ZM213.83 244.105a.61.61 0 1 0 0-1.22.61.61 0 0 0 0 1.22ZM213.83 246.46a.61.61 0 1 0 0-1.22.61.61 0 0 0 0 1.22ZM213.83 248.815a.61.61 0 1 0 0-1.22.61.61 0 0 0 0 1.22ZM213.83 251.17a.61.61 0 1 0 0-1.22.61.61 0 0 0 0 1.22ZM213.83 253.525a.61.61 0 1 0 0-1.22.61.61 0 0 0 0 1.22ZM211.76 234.68a.61.61 0 1 0 0-1.22.61.61 0 0 0 0 1.22ZM211.76 237.035a.61.61 0 1 0 0-1.22.61.61 0 0 0 0 1.22ZM211.76 239.39a.61.61 0 1 0 0-1.22.61.61 0 0 0 0 1.22ZM211.76 241.75a.61.61 0 1 0 0-1.22.61.61 0 0 0 0 1.22ZM211.76 244.105a.61.61 0 1 0 0-1.22.61.61 0 0 0 0 1.22ZM211.76 246.46a.61.61 0 1 0 0-1.22.61.61 0 0 0 0 1.22ZM211.76 248.815a.61.61 0 1 0 0-1.22.61.61 0 0 0 0 1.22ZM211.76 251.17a.61.61 0 1 0 0-1.22.61.61 0 0 0 0 1.22ZM211.76 253.525a.61.61 0 1 0 0-1.22.61.61 0 0 0 0 1.22ZM209.69 234.68a.61.61 0 1 0 0-1.22.61.61 0 0 0 0 1.22ZM209.69 237.035a.61.61 0 1 0 0-1.22.61.61 0 0 0 0 1.22ZM209.69 239.39a.61.61 0 1 0 0-1.22.61.61 0 0 0 0 1.22ZM209.69 241.75a.61.61 0 1 0 0-1.22.61.61 0 0 0 0 1.22ZM209.69 244.105a.61.61 0 1 0 0-1.22.61.61 0 0 0 0 1.22ZM209.69 246.46a.61.61 0 1 0 0-1.22.61.61 0 0 0 0 1.22ZM209.69 248.815a.61.61 0 1 0 0-1.22.61.61 0 0 0 0 1.22ZM209.69 251.17a.61.61 0 1 0 0-1.22.61.61 0 0 0 0 1.22ZM209.69 253.525a.61.61 0 1 0 0-1.22.61.61 0 0 0 0 1.22ZM207.62 234.68a.61.61 0 1 0 0-1.22.61.61 0 0 0 0 1.22ZM207.62 237.035a.61.61 0 1 0 0-1.22.61.61 0 0 0 0 1.22ZM207.62 239.39a.61.61 0 1 0 0-1.22.61.61 0 0 0 0 1.22ZM207.62 241.75a.61.61 0 1 0 0-1.22.61.61 0 0 0 0 1.22ZM207.62 244.105a.61.61 0 1 0 0-1.22.61.61 0 0 0 0 1.22ZM207.62 246.46a.61.61 0 1 0 0-1.22.61.61 0 0 0 0 1.22ZM207.62 248.815a.61.61 0 1 0 0-1.22.61.61 0 0 0 0 1.22ZM207.62 251.17a.61.61 0 1 0 0-1.22.61.61 0 0 0 0 1.22ZM207.62 253.525a.61.61 0 1 0 0-1.22.61.61 0 0 0 0 1.22ZM205.55 234.68a.61.61 0 1 0 0-1.22.61.61 0 0 0 0 1.22ZM205.55 237.035a.61.61 0 1 0 0-1.22.61.61 0 0 0 0 1.22ZM205.55 239.39a.61.61 0 1 0 0-1.22.61.61 0 0 0 0 1.22ZM205.55 241.75a.61.61 0 1 0 0-1.22.61.61 0 0 0 0 1.22ZM205.55 244.105a.61.61 0 1 0 0-1.22.61.61 0 0 0 0 1.22ZM205.55 246.46a.61.61 0 1 0 0-1.22.61.61 0 0 0 0 1.22ZM205.55 248.815a.61.61 0 1 0 0-1.22.61.61 0 0 0 0 1.22ZM205.55 251.17a.61.61 0 1 0 0-1.22.61.61 0 0 0 0 1.22ZM205.55 253.525a.61.61 0 1 0 0-1.22.61.61 0 0 0 0 1.22Z" fill="#C9CACA" style="mix-blend-mode:multiply" opacity=".59"/></g><g style="mix-blend-mode:multiply" opacity=".59"><path d="M202.985 234.68a.61.61 0 1 0 0-1.22.61.61 0 0 0 0 1.22ZM202.985 237.035a.61.61 0 1 0 0-1.22.61.61 0 0 0 0 1.22ZM202.985 239.39a.61.61 0 1 0 0-1.22.61.61 0 0 0 0 1.22ZM202.985 241.75a.61.61 0 1 0 0-1.22.61.61 0 0 0 0 1.22ZM202.985 244.105a.61.61 0 1 0 0-1.22.61.61 0 0 0 0 1.22ZM202.985 246.46a.61.61 0 1 0 0-1.22.61.61 0 0 0 0 1.22ZM202.985 248.815a.61.61 0 1 0 0-1.22.61.61 0 0 0 0 1.22ZM202.985 251.17a.61.61 0 1 0 0-1.22.61.61 0 0 0 0 1.22ZM202.985 253.525a.61.61 0 1 0 0-1.22.61.61 0 0 0 0 1.22ZM200.915 234.68a.61.61 0 1 0 0-1.22.61.61 0 0 0 0 1.22ZM200.915 237.035a.61.61 0 1 0 0-1.22.61.61 0 0 0 0 1.22ZM200.915 239.39a.61.61 0 1 0 0-1.22.61.61 0 0 0 0 1.22ZM200.915 241.75a.61.61 0 1 0 0-1.22.61.61 0 0 0 0 1.22ZM200.915 244.105a.61.61 0 1 0 0-1.22.61.61 0 0 0 0 1.22ZM200.915 246.46a.61.61 0 1 0 0-1.22.61.61 0 0 0 0 1.22ZM200.915 248.815a.61.61 0 1 0 0-1.22.61.61 0 0 0 0 1.22ZM200.915 251.17a.61.61 0 1 0 0-1.22.61.61 0 0 0 0 1.22ZM200.915 253.525a.61.61 0 1 0 0-1.22.61.61 0 0 0 0 1.22ZM198.845 234.68a.61.61 0 1 0 0-1.22.61.61 0 0 0 0 1.22ZM198.845 237.035a.61.61 0 1 0 0-1.22.61.61 0 0 0 0 1.22ZM198.845 239.39a.61.61 0 1 0 0-1.22.61.61 0 0 0 0 1.22ZM198.845 241.75a.61.61 0 1 0 0-1.22.61.61 0 0 0 0 1.22ZM198.845 244.105a.61.61 0 1 0 0-1.22.61.61 0 0 0 0 1.22ZM198.845 246.46a.61.61 0 1 0 0-1.22.61.61 0 0 0 0 1.22ZM198.845 248.815a.61.61 0 1 0 0-1.22.61.61 0 0 0 0 1.22ZM198.845 251.17a.61.61 0 1 0 0-1.22.61.61 0 0 0 0 1.22ZM198.845 253.525a.61.61 0 1 0 0-1.22.61.61 0 0 0 0 1.22ZM196.775 234.68a.61.61 0 1 0 0-1.22.61.61 0 0 0 0 1.22ZM196.775 237.035a.61.61 0 1 0 0-1.22.61.61 0 0 0 0 1.22ZM196.775 239.39a.61.61 0 1 0 0-1.22.61.61 0 0 0 0 1.22ZM196.775 241.75a.61.61 0 1 0 0-1.22.61.61 0 0 0 0 1.22ZM196.775 244.105a.61.61 0 1 0 0-1.22.61.61 0 0 0 0 1.22ZM196.775 246.46a.61.61 0 1 0 0-1.22.61.61 0 0 0 0 1.22ZM196.775 248.815a.61.61 0 1 0 0-1.22.61.61 0 0 0 0 1.22ZM196.775 251.17a.61.61 0 1 0 0-1.22.61.61 0 0 0 0 1.22ZM196.775 253.525a.61.61 0 1 0 0-1.22.61.61 0 0 0 0 1.22ZM194.705 234.68a.61.61 0 1 0 0-1.22.61.61 0 0 0 0 1.22ZM194.705 237.035a.61.61 0 1 0 0-1.22.61.61 0 0 0 0 1.22ZM194.705 239.39a.61.61 0 1 0 0-1.22.61.61 0 0 0 0 1.22ZM194.705 241.75a.61.61 0 1 0 0-1.22.61.61 0 0 0 0 1.22ZM194.705 244.105a.61.61 0 1 0 0-1.22.61.61 0 0 0 0 1.22ZM194.705 246.46a.61.61 0 1 0 0-1.22.61.61 0 0 0 0 1.22ZM194.705 248.815a.61.61 0 1 0 0-1.22.61.61 0 0 0 0 1.22ZM194.705 251.17a.61.61 0 1 0 0-1.22.61.61 0 0 0 0 1.22ZM194.705 253.525a.61.61 0 1 0 0-1.22.61.61 0 0 0 0 1.22ZM192.635 234.68a.61.61 0 1 0 0-1.22.61.61 0 0 0 0 1.22ZM192.635 237.035a.61.61 0 1 0 0-1.22.61.61 0 0 0 0 1.22ZM192.635 239.39a.61.61 0 1 0 0-1.22.61.61 0 0 0 0 1.22ZM192.635 241.75a.61.61 0 1 0 0-1.22.61.61 0 0 0 0 1.22ZM192.635 244.105a.61.61 0 1 0 0-1.22.61.61 0 0 0 0 1.22ZM192.635 246.46a.61.61 0 1 0 0-1.22.61.61 0 0 0 0 1.22ZM192.635 248.815a.61.61 0 1 0 0-1.22.61.61 0 0 0 0 1.22ZM192.635 251.17a.61.61 0 1 0 0-1.22.61.61 0 0 0 0 1.22ZM192.635 253.525a.61.61 0 1 0 0-1.22.61.61 0 0 0 0 1.22ZM190.56 234.68a.61.61 0 1 0 0-1.22.61.61 0 0 0 0 1.22ZM190.56 237.035a.61.61 0 1 0 0-1.22.61.61 0 0 0 0 1.22ZM190.56 239.39a.61.61 0 1 0 0-1.22.61.61 0 0 0 0 1.22ZM190.56 241.75a.61.61 0 1 0 0-1.22.61.61 0 0 0 0 1.22ZM190.56 244.105a.61.61 0 1 0 0-1.22.61.61 0 0 0 0 1.22ZM190.56 246.46a.61.61 0 1 0 0-1.22.61.61 0 0 0 0 1.22ZM190.56 248.815a.61.61 0 1 0 0-1.22.61.61 0 0 0 0 1.22ZM190.56 251.17a.61.61 0 1 0 0-1.22.61.61 0 0 0 0 1.22ZM190.56 253.525a.61.61 0 1 0 0-1.22.61.61 0 0 0 0 1.22ZM188.49 234.68a.61.61 0 1 0 0-1.22.61.61 0 0 0 0 1.22ZM188.49 237.035a.61.61 0 1 0 0-1.22.61.61 0 0 0 0 1.22ZM188.49 239.39a.61.61 0 1 0 0-1.22.61.61 0 0 0 0 1.22ZM188.49 241.75a.61.61 0 1 0 0-1.22.61.61 0 0 0 0 1.22ZM188.49 244.105a.61.61 0 1 0 0-1.22.61.61 0 0 0 0 1.22ZM188.49 246.46a.61.61 0 1 0 0-1.22.61.61 0 0 0 0 1.22ZM188.49 248.815a.61.61 0 1 0 0-1.22.61.61 0 0 0 0 1.22ZM188.49 251.17a.61.61 0 1 0 0-1.22.61.61 0 0 0 0 1.22ZM188.49 253.525a.61.61 0 1 0 0-1.22.61.61 0 0 0 0 1.22Z" fill="#C9CACA" style="mix-blend-mode:multiply" opacity=".59"/></g><g style="mix-blend-mode:multiply" opacity=".59"><path d="M186.28 234.68a.61.61 0 1 0 0-1.22.61.61 0 0 0 0 1.22ZM186.28 237.035a.61.61 0 1 0 0-1.22.61.61 0 0 0 0 1.22ZM186.28 239.39a.61.61 0 1 0 0-1.22.61.61 0 0 0 0 1.22ZM186.28 241.75a.61.61 0 1 0 0-1.22.61.61 0 0 0 0 1.22ZM186.28 244.105a.61.61 0 1 0 0-1.22.61.61 0 0 0 0 1.22ZM186.28 246.46a.61.61 0 1 0 0-1.22.61.61 0 0 0 0 1.22ZM186.28 248.815a.61.61 0 1 0 0-1.22.61.61 0 0 0 0 1.22ZM186.28 251.17a.61.61 0 1 0 0-1.22.61.61 0 0 0 0 1.22ZM186.28 253.525a.61.61 0 1 0 0-1.22.61.61 0 0 0 0 1.22ZM184.21 234.68a.61.61 0 1 0 0-1.22.61.61 0 0 0 0 1.22ZM184.21 237.035a.61.61 0 1 0 0-1.22.61.61 0 0 0 0 1.22ZM184.21 239.39a.61.61 0 1 0 0-1.22.61.61 0 0 0 0 1.22ZM184.21 241.75a.61.61 0 1 0 0-1.22.61.61 0 0 0 0 1.22ZM184.21 244.105a.61.61 0 1 0 0-1.22.61.61 0 0 0 0 1.22ZM184.21 246.46a.61.61 0 1 0 0-1.22.61.61 0 0 0 0 1.22ZM184.21 248.815a.61.61 0 1 0 0-1.22.61.61 0 0 0 0 1.22ZM184.21 251.17a.61.61 0 1 0 0-1.22.61.61 0 0 0 0 1.22ZM184.21 253.525a.61.61 0 1 0 0-1.22.61.61 0 0 0 0 1.22ZM182.14 234.68a.61.61 0 1 0 0-1.22.61.61 0 0 0 0 1.22ZM182.14 237.035a.61.61 0 1 0 0-1.22.61.61 0 0 0 0 1.22ZM182.14 239.39a.61.61 0 1 0 0-1.22.61.61 0 0 0 0 1.22ZM182.14 241.75a.61.61 0 1 0 0-1.22.61.61 0 0 0 0 1.22ZM182.14 244.105a.61.61 0 1 0 0-1.22.61.61 0 0 0 0 1.22ZM182.14 246.46a.61.61 0 1 0 0-1.22.61.61 0 0 0 0 1.22ZM182.14 248.815a.61.61 0 1 0 0-1.22.61.61 0 0 0 0 1.22ZM182.14 251.17a.61.61 0 1 0 0-1.22.61.61 0 0 0 0 1.22ZM182.14 253.525a.61.61 0 1 0 0-1.22.61.61 0 0 0 0 1.22ZM180.07 234.68a.61.61 0 1 0 0-1.22.61.61 0 0 0 0 1.22ZM180.07 237.035a.61.61 0 1 0 0-1.22.61.61 0 0 0 0 1.22ZM180.07 239.39a.61.61 0 1 0 0-1.22.61.61 0 0 0 0 1.22ZM180.07 241.75a.61.61 0 1 0 0-1.22.61.61 0 0 0 0 1.22ZM180.07 244.105a.61.61 0 1 0 0-1.22.61.61 0 0 0 0 1.22ZM180.07 246.46a.61.61 0 1 0 0-1.22.61.61 0 0 0 0 1.22ZM180.07 248.815a.61.61 0 1 0 0-1.22.61.61 0 0 0 0 1.22ZM180.07 251.17a.61.61 0 1 0 0-1.22.61.61 0 0 0 0 1.22ZM180.07 253.525a.61.61 0 1 0 0-1.22.61.61 0 0 0 0 1.22ZM178 234.68a.61.61 0 1 0 0-1.22.61.61 0 0 0 0 1.22ZM178 237.035a.61.61 0 1 0 0-1.22.61.61 0 0 0 0 1.22ZM178 239.39a.61.61 0 1 0 0-1.22.61.61 0 0 0 0 1.22ZM178 241.75a.61.61 0 1 0 0-1.22.61.61 0 0 0 0 1.22ZM178 244.105a.61.61 0 1 0 0-1.22.61.61 0 0 0 0 1.22ZM178 246.46a.61.61 0 1 0 0-1.22.61.61 0 0 0 0 1.22ZM178 248.815a.61.61 0 1 0 0-1.22.61.61 0 0 0 0 1.22ZM178 251.17a.61.61 0 1 0 0-1.22.61.61 0 0 0 0 1.22ZM178 253.525a.61.61 0 1 0 0-1.22.61.61 0 0 0 0 1.22ZM175.93 234.68a.61.61 0 1 0 0-1.22.61.61 0 0 0 0 1.22ZM175.93 237.035a.61.61 0 1 0 0-1.22.61.61 0 0 0 0 1.22ZM175.93 239.39a.61.61 0 1 0 0-1.22.61.61 0 0 0 0 1.22ZM175.93 241.75a.61.61 0 1 0 0-1.22.61.61 0 0 0 0 1.22ZM175.93 244.105a.61.61 0 1 0 0-1.22.61.61 0 0 0 0 1.22ZM175.93 246.46a.61.61 0 1 0 0-1.22.61.61 0 0 0 0 1.22ZM175.93 248.815a.61.61 0 1 0 0-1.22.61.61 0 0 0 0 1.22ZM175.93 251.17a.61.61 0 1 0 0-1.22.61.61 0 0 0 0 1.22ZM175.93 253.525a.61.61 0 1 0 0-1.22.61.61 0 0 0 0 1.22ZM173.86 234.68a.61.61 0 1 0 0-1.22.61.61 0 0 0 0 1.22ZM173.86 237.035a.61.61 0 1 0 0-1.22.61.61 0 0 0 0 1.22ZM173.86 239.39a.61.61 0 1 0 0-1.22.61.61 0 0 0 0 1.22ZM173.86 241.75a.61.61 0 1 0 0-1.22.61.61 0 0 0 0 1.22ZM173.86 244.105a.61.61 0 1 0 0-1.22.61.61 0 0 0 0 1.22ZM173.86 246.46a.61.61 0 1 0 0-1.22.61.61 0 0 0 0 1.22ZM173.86 248.815a.61.61 0 1 0 0-1.22.61.61 0 0 0 0 1.22ZM173.86 251.17a.61.61 0 1 0 0-1.22.61.61 0 0 0 0 1.22ZM173.86 253.525a.61.61 0 1 0 0-1.22.61.61 0 0 0 0 1.22ZM171.79 234.68a.61.61 0 1 0 0-1.22.61.61 0 0 0 0 1.22ZM171.79 237.035a.61.61 0 1 0 0-1.22.61.61 0 0 0 0 1.22ZM171.79 239.39a.61.61 0 1 0 0-1.22.61.61 0 0 0 0 1.22ZM171.79 241.75a.61.61 0 1 0 0-1.22.61.61 0 0 0 0 1.22ZM171.79 244.105a.61.61 0 1 0 0-1.22.61.61 0 0 0 0 1.22ZM171.79 246.46a.61.61 0 1 0 0-1.22.61.61 0 0 0 0 1.22ZM171.79 248.815a.61.61 0 1 0 0-1.22.61.61 0 0 0 0 1.22ZM171.79 251.17a.61.61 0 1 0 0-1.22.61.61 0 0 0 0 1.22ZM171.79 253.525a.61.61 0 1 0 0-1.22.61.61 0 0 0 0 1.22Z" fill="#C9CACA" style="mix-blend-mode:multiply" opacity=".59"/></g><g style="mix-blend-mode:multiply" opacity=".59"><path d="M169.225 234.68a.61.61 0 1 0 0-1.22.61.61 0 0 0 0 1.22ZM169.225 237.035a.61.61 0 1 0 0-1.22.61.61 0 0 0 0 1.22ZM169.225 239.39a.61.61 0 1 0 0-1.22.61.61 0 0 0 0 1.22ZM169.225 241.75a.61.61 0 1 0 0-1.22.61.61 0 0 0 0 1.22ZM169.225 244.105a.61.61 0 1 0 0-1.22.61.61 0 0 0 0 1.22ZM169.225 246.46a.61.61 0 1 0 0-1.22.61.61 0 0 0 0 1.22ZM169.225 248.815a.61.61 0 1 0 0-1.22.61.61 0 0 0 0 1.22ZM169.225 251.17a.61.61 0 1 0 0-1.22.61.61 0 0 0 0 1.22ZM169.225 253.525a.61.61 0 1 0 0-1.22.61.61 0 0 0 0 1.22ZM167.155 234.68a.61.61 0 1 0 0-1.22.61.61 0 0 0 0 1.22ZM167.155 237.035a.61.61 0 1 0 0-1.22.61.61 0 0 0 0 1.22ZM167.155 239.39a.61.61 0 1 0 0-1.22.61.61 0 0 0 0 1.22ZM167.155 241.75a.61.61 0 1 0 0-1.22.61.61 0 0 0 0 1.22ZM167.155 244.105a.61.61 0 1 0 0-1.22.61.61 0 0 0 0 1.22ZM167.155 246.46a.61.61 0 1 0 0-1.22.61.61 0 0 0 0 1.22ZM167.155 248.815a.61.61 0 1 0 0-1.22.61.61 0 0 0 0 1.22ZM167.155 251.17a.61.61 0 1 0 0-1.22.61.61 0 0 0 0 1.22ZM167.155 253.525a.61.61 0 1 0 0-1.22.61.61 0 0 0 0 1.22ZM165.085 234.68a.61.61 0 1 0 0-1.22.61.61 0 0 0 0 1.22ZM165.085 237.035a.61.61 0 1 0 0-1.22.61.61 0 0 0 0 1.22ZM165.085 239.39a.61.61 0 1 0 0-1.22.61.61 0 0 0 0 1.22ZM165.085 241.75a.61.61 0 1 0 0-1.22.61.61 0 0 0 0 1.22ZM165.085 244.105a.61.61 0 1 0 0-1.22.61.61 0 0 0 0 1.22ZM165.085 246.46a.61.61 0 1 0 0-1.22.61.61 0 0 0 0 1.22ZM165.085 248.815a.61.61 0 1 0 0-1.22.61.61 0 0 0 0 1.22ZM165.085 251.17a.61.61 0 1 0 0-1.22.61.61 0 0 0 0 1.22ZM165.085 253.525a.61.61 0 1 0 0-1.22.61.61 0 0 0 0 1.22ZM163.015 234.68a.61.61 0 1 0 0-1.22.61.61 0 0 0 0 1.22ZM163.015 237.035a.61.61 0 1 0 0-1.22.61.61 0 0 0 0 1.22ZM163.015 239.39a.61.61 0 1 0 0-1.22.61.61 0 0 0 0 1.22ZM163.015 241.75a.61.61 0 1 0 0-1.22.61.61 0 0 0 0 1.22ZM163.015 244.105a.61.61 0 1 0 0-1.22.61.61 0 0 0 0 1.22ZM163.015 246.46a.61.61 0 1 0 0-1.22.61.61 0 0 0 0 1.22ZM163.015 248.815a.61.61 0 1 0 0-1.22.61.61 0 0 0 0 1.22ZM163.015 251.17a.61.61 0 1 0 0-1.22.61.61 0 0 0 0 1.22ZM163.015 253.525a.61.61 0 1 0 0-1.22.61.61 0 0 0 0 1.22ZM160.945 234.68a.61.61 0 1 0 0-1.22.61.61 0 0 0 0 1.22ZM160.945 237.035a.61.61 0 1 0 0-1.22.61.61 0 0 0 0 1.22ZM160.945 239.39a.61.61 0 1 0 0-1.22.61.61 0 0 0 0 1.22ZM160.945 241.75a.61.61 0 1 0 0-1.22.61.61 0 0 0 0 1.22ZM160.945 244.105a.61.61 0 1 0 0-1.22.61.61 0 0 0 0 1.22ZM160.945 246.46a.61.61 0 1 0 0-1.22.61.61 0 0 0 0 1.22ZM160.945 248.815a.61.61 0 1 0 0-1.22.61.61 0 0 0 0 1.22ZM160.945 251.17a.61.61 0 1 0 0-1.22.61.61 0 0 0 0 1.22ZM160.945 253.525a.61.61 0 1 0 0-1.22.61.61 0 0 0 0 1.22ZM158.875 234.68a.61.61 0 1 0 0-1.22.61.61 0 0 0 0 1.22ZM158.875 237.035a.61.61 0 1 0 0-1.22.61.61 0 0 0 0 1.22ZM158.875 239.39a.61.61 0 1 0 0-1.22.61.61 0 0 0 0 1.22ZM158.875 241.75a.61.61 0 1 0 0-1.22.61.61 0 0 0 0 1.22ZM158.875 244.105a.61.61 0 1 0 0-1.22.61.61 0 0 0 0 1.22ZM158.875 246.46a.61.61 0 1 0 0-1.22.61.61 0 0 0 0 1.22ZM158.875 248.815a.61.61 0 1 0 0-1.22.61.61 0 0 0 0 1.22ZM158.875 251.17a.61.61 0 1 0 0-1.22.61.61 0 0 0 0 1.22ZM158.875 253.525a.61.61 0 1 0 0-1.22.61.61 0 0 0 0 1.22ZM156.805 234.68a.61.61 0 1 0 0-1.22.61.61 0 0 0 0 1.22ZM156.805 237.035a.61.61 0 1 0 0-1.22.61.61 0 0 0 0 1.22ZM156.805 239.39a.61.61 0 1 0 0-1.22.61.61 0 0 0 0 1.22ZM156.805 241.75a.61.61 0 1 0 0-1.22.61.61 0 0 0 0 1.22ZM156.805 244.105a.61.61 0 1 0 0-1.22.61.61 0 0 0 0 1.22ZM156.805 246.46a.61.61 0 1 0 0-1.22.61.61 0 0 0 0 1.22ZM156.805 248.815a.61.61 0 1 0 0-1.22.61.61 0 0 0 0 1.22ZM156.805 251.17a.61.61 0 1 0 0-1.22.61.61 0 0 0 0 1.22ZM156.805 253.525a.61.61 0 1 0 0-1.22.61.61 0 0 0 0 1.22ZM154.735 234.68a.61.61 0 1 0 0-1.22.61.61 0 0 0 0 1.22ZM154.735 237.035a.61.61 0 1 0 0-1.22.61.61 0 0 0 0 1.22ZM154.735 239.39a.61.61 0 1 0 0-1.22.61.61 0 0 0 0 1.22ZM154.735 241.75a.61.61 0 1 0 0-1.22.61.61 0 0 0 0 1.22ZM154.735 244.105a.61.61 0 1 0 0-1.22.61.61 0 0 0 0 1.22ZM154.735 246.46a.61.61 0 1 0 0-1.22.61.61 0 0 0 0 1.22ZM154.735 248.815a.61.61 0 1 0 0-1.22.61.61 0 0 0 0 1.22ZM154.735 251.17a.61.61 0 1 0 0-1.22.61.61 0 0 0 0 1.22ZM154.735 253.525a.61.61 0 1 0 0-1.22.61.61 0 0 0 0 1.22Z" fill="#C9CACA" style="mix-blend-mode:multiply" opacity=".59"/></g></g><g style="mix-blend-mode:multiply"><g style="mix-blend-mode:multiply" opacity=".59"><path d="M287.715 234.68a.61.61 0 1 0 0-1.22.61.61 0 0 0 0 1.22ZM287.715 237.035a.61.61 0 1 0 0-1.22.61.61 0 0 0 0 1.22ZM287.715 239.39a.61.61 0 1 0 0-1.22.61.61 0 0 0 0 1.22ZM287.715 241.75a.61.61 0 1 0 0-1.22.61.61 0 0 0 0 1.22ZM287.715 244.105a.61.61 0 1 0 0-1.22.61.61 0 0 0 0 1.22ZM287.715 246.46a.61.61 0 1 0 0-1.22.61.61 0 0 0 0 1.22ZM287.715 248.815a.61.61 0 1 0 0-1.22.61.61 0 0 0 0 1.22ZM287.715 251.17a.61.61 0 1 0 0-1.22.61.61 0 0 0 0 1.22ZM287.715 253.525a.61.61 0 1 0 0-1.22.61.61 0 0 0 0 1.22ZM285.645 234.68a.61.61 0 1 0 0-1.22.61.61 0 0 0 0 1.22ZM285.645 237.035a.61.61 0 1 0 0-1.22.61.61 0 0 0 0 1.22ZM285.645 239.39a.61.61 0 1 0 0-1.22.61.61 0 0 0 0 1.22ZM285.645 241.75a.61.61 0 1 0 0-1.22.61.61 0 0 0 0 1.22ZM285.645 244.105a.61.61 0 1 0 0-1.22.61.61 0 0 0 0 1.22ZM285.645 246.46a.61.61 0 1 0 0-1.22.61.61 0 0 0 0 1.22ZM285.645 248.815a.61.61 0 1 0 0-1.22.61.61 0 0 0 0 1.22ZM285.645 251.17a.61.61 0 1 0 0-1.22.61.61 0 0 0 0 1.22ZM285.645 253.525a.61.61 0 1 0 0-1.22.61.61 0 0 0 0 1.22ZM283.575 234.68a.61.61 0 1 0 0-1.22.61.61 0 0 0 0 1.22ZM283.575 237.035a.61.61 0 1 0 0-1.22.61.61 0 0 0 0 1.22ZM283.575 239.39a.61.61 0 1 0 0-1.22.61.61 0 0 0 0 1.22ZM283.575 241.75a.61.61 0 1 0 0-1.22.61.61 0 0 0 0 1.22ZM283.575 244.105a.61.61 0 1 0 0-1.22.61.61 0 0 0 0 1.22ZM283.575 246.46a.61.61 0 1 0 0-1.22.61.61 0 0 0 0 1.22ZM283.575 248.815a.61.61 0 1 0 0-1.22.61.61 0 0 0 0 1.22ZM283.575 251.17a.61.61 0 1 0 0-1.22.61.61 0 0 0 0 1.22ZM283.575 253.525a.61.61 0 1 0 0-1.22.61.61 0 0 0 0 1.22ZM281.5 234.68a.61.61 0 1 0 0-1.22.61.61 0 0 0 0 1.22ZM281.5 237.035a.61.61 0 1 0 0-1.22.61.61 0 0 0 0 1.22ZM281.5 239.39a.61.61 0 1 0 0-1.22.61.61 0 0 0 0 1.22ZM281.5 241.75a.61.61 0 1 0 0-1.22.61.61 0 0 0 0 1.22ZM281.5 244.105a.61.61 0 1 0 0-1.22.61.61 0 0 0 0 1.22ZM281.5 246.46a.61.61 0 1 0 0-1.22.61.61 0 0 0 0 1.22ZM281.5 248.815a.61.61 0 1 0 0-1.22.61.61 0 0 0 0 1.22ZM281.5 251.17a.61.61 0 1 0 0-1.22.61.61 0 0 0 0 1.22ZM281.5 253.525a.61.61 0 1 0 0-1.22.61.61 0 0 0 0 1.22ZM279.43 234.68a.61.61 0 1 0 0-1.22.61.61 0 0 0 0 1.22ZM279.43 237.035a.61.61 0 1 0 0-1.22.61.61 0 0 0 0 1.22ZM279.43 239.39a.61.61 0 1 0 0-1.22.61.61 0 0 0 0 1.22ZM279.43 241.75a.61.61 0 1 0 0-1.22.61.61 0 0 0 0 1.22ZM279.43 244.105a.61.61 0 1 0 0-1.22.61.61 0 0 0 0 1.22ZM279.43 246.46a.61.61 0 1 0 0-1.22.61.61 0 0 0 0 1.22ZM279.43 248.815a.61.61 0 1 0 0-1.22.61.61 0 0 0 0 1.22ZM279.43 251.17a.61.61 0 1 0 0-1.22.61.61 0 0 0 0 1.22ZM279.43 253.525a.61.61 0 1 0 0-1.22.61.61 0 0 0 0 1.22ZM277.36 234.68a.61.61 0 1 0 0-1.22.61.61 0 0 0 0 1.22ZM277.36 237.035a.61.61 0 1 0 0-1.22.61.61 0 0 0 0 1.22ZM277.36 239.39a.61.61 0 1 0 0-1.22.61.61 0 0 0 0 1.22ZM277.36 241.75a.61.61 0 1 0 0-1.22.61.61 0 0 0 0 1.22ZM277.36 244.105a.61.61 0 1 0 0-1.22.61.61 0 0 0 0 1.22ZM277.36 246.46a.61.61 0 1 0 0-1.22.61.61 0 0 0 0 1.22ZM277.36 248.815a.61.61 0 1 0 0-1.22.61.61 0 0 0 0 1.22ZM277.36 251.17a.61.61 0 1 0 0-1.22.61.61 0 0 0 0 1.22ZM277.36 253.525a.61.61 0 1 0 0-1.22.61.61 0 0 0 0 1.22ZM275.29 234.68a.61.61 0 1 0 0-1.22.61.61 0 0 0 0 1.22ZM275.29 237.035a.61.61 0 1 0 0-1.22.61.61 0 0 0 0 1.22ZM275.29 239.39a.61.61 0 1 0 0-1.22.61.61 0 0 0 0 1.22ZM275.29 241.75a.61.61 0 1 0 0-1.22.61.61 0 0 0 0 1.22ZM275.29 244.105a.61.61 0 1 0 0-1.22.61.61 0 0 0 0 1.22ZM275.29 246.46a.61.61 0 1 0 0-1.22.61.61 0 0 0 0 1.22ZM275.29 248.815a.61.61 0 1 0 0-1.22.61.61 0 0 0 0 1.22ZM275.29 251.17a.61.61 0 1 0 0-1.22.61.61 0 0 0 0 1.22ZM275.29 253.525a.61.61 0 1 0 0-1.22.61.61 0 0 0 0 1.22ZM273.22 234.68a.61.61 0 1 0 0-1.22.61.61 0 0 0 0 1.22ZM273.22 237.035a.61.61 0 1 0 0-1.22.61.61 0 0 0 0 1.22ZM273.22 239.39a.61.61 0 1 0 0-1.22.61.61 0 0 0 0 1.22ZM273.22 241.75a.61.61 0 1 0 0-1.22.61.61 0 0 0 0 1.22ZM273.22 244.105a.61.61 0 1 0 0-1.22.61.61 0 0 0 0 1.22ZM273.22 246.46a.61.61 0 1 0 0-1.22.61.61 0 0 0 0 1.22ZM273.22 248.815a.61.61 0 1 0 0-1.22.61.61 0 0 0 0 1.22ZM273.22 251.17a.61.61 0 1 0 0-1.22.61.61 0 0 0 0 1.22ZM273.22 253.525a.61.61 0 1 0 0-1.22.61.61 0 0 0 0 1.22Z" fill="#C9CACA" style="mix-blend-mode:multiply" opacity=".59"/></g><g style="mix-blend-mode:multiply" opacity=".59"><path d="M270.655 234.68a.61.61 0 1 0 0-1.22.61.61 0 0 0 0 1.22ZM270.655 237.035a.61.61 0 1 0 0-1.22.61.61 0 0 0 0 1.22ZM270.655 239.39a.61.61 0 1 0 0-1.22.61.61 0 0 0 0 1.22ZM270.655 241.75a.61.61 0 1 0 0-1.22.61.61 0 0 0 0 1.22ZM270.655 244.105a.61.61 0 1 0 0-1.22.61.61 0 0 0 0 1.22ZM270.655 246.46a.61.61 0 1 0 0-1.22.61.61 0 0 0 0 1.22ZM270.655 248.815a.61.61 0 1 0 0-1.22.61.61 0 0 0 0 1.22ZM270.655 251.17a.61.61 0 1 0 0-1.22.61.61 0 0 0 0 1.22ZM270.655 253.525a.61.61 0 1 0 0-1.22.61.61 0 0 0 0 1.22ZM268.585 234.68a.61.61 0 1 0-.001-1.221.61.61 0 0 0 .001 1.221ZM268.585 237.035a.61.61 0 1 0-.001-1.221.61.61 0 0 0 .001 1.221ZM268.585 239.39a.61.61 0 1 0-.001-1.221.61.61 0 0 0 .001 1.221ZM268.585 241.75a.61.61 0 1 0-.001-1.221.61.61 0 0 0 .001 1.221ZM268.585 244.105a.61.61 0 1 0-.001-1.221.61.61 0 0 0 .001 1.221ZM268.585 246.46a.61.61 0 1 0-.001-1.221.61.61 0 0 0 .001 1.221ZM268.585 248.815a.61.61 0 1 0-.001-1.221.61.61 0 0 0 .001 1.221ZM268.585 251.17a.61.61 0 1 0-.001-1.221.61.61 0 0 0 .001 1.221ZM268.585 253.525a.61.61 0 1 0-.001-1.221.61.61 0 0 0 .001 1.221ZM266.515 234.68a.61.61 0 1 0 0-1.22.61.61 0 0 0 0 1.22ZM266.515 237.035a.61.61 0 1 0 0-1.22.61.61 0 0 0 0 1.22ZM266.515 239.39a.61.61 0 1 0 0-1.22.61.61 0 0 0 0 1.22ZM266.515 241.75a.61.61 0 1 0 0-1.22.61.61 0 0 0 0 1.22ZM266.515 244.105a.61.61 0 1 0 0-1.22.61.61 0 0 0 0 1.22ZM266.515 246.46a.61.61 0 1 0 0-1.22.61.61 0 0 0 0 1.22ZM266.515 248.815a.61.61 0 1 0 0-1.22.61.61 0 0 0 0 1.22ZM266.515 251.17a.61.61 0 1 0 0-1.22.61.61 0 0 0 0 1.22ZM266.515 253.525a.61.61 0 1 0 0-1.22.61.61 0 0 0 0 1.22ZM264.444 234.68a.61.61 0 1 0 0-1.22.61.61 0 0 0 0 1.22ZM264.444 237.035a.61.61 0 1 0 0-1.22.61.61 0 0 0 0 1.22ZM264.444 239.39a.61.61 0 1 0 0-1.22.61.61 0 0 0 0 1.22ZM264.444 241.75a.61.61 0 1 0 0-1.22.61.61 0 0 0 0 1.22ZM264.444 244.105a.61.61 0 1 0 0-1.22.61.61 0 0 0 0 1.22ZM264.444 246.46a.61.61 0 1 0 0-1.22.61.61 0 0 0 0 1.22ZM264.444 248.815a.61.61 0 1 0 0-1.22.61.61 0 0 0 0 1.22ZM264.444 251.17a.61.61 0 1 0 0-1.22.61.61 0 0 0 0 1.22ZM264.444 253.525a.61.61 0 1 0 0-1.22.61.61 0 0 0 0 1.22ZM262.375 234.68a.61.61 0 1 0 0-1.22.61.61 0 0 0 0 1.22ZM262.375 237.035a.61.61 0 1 0 0-1.22.61.61 0 0 0 0 1.22ZM262.375 239.39a.61.61 0 1 0 0-1.22.61.61 0 0 0 0 1.22ZM262.375 241.75a.61.61 0 1 0 0-1.22.61.61 0 0 0 0 1.22ZM262.375 244.105a.61.61 0 1 0 0-1.22.61.61 0 0 0 0 1.22ZM262.375 246.46a.61.61 0 1 0 0-1.22.61.61 0 0 0 0 1.22ZM262.375 248.815a.61.61 0 1 0 0-1.22.61.61 0 0 0 0 1.22ZM262.375 251.17a.61.61 0 1 0 0-1.22.61.61 0 0 0 0 1.22ZM262.375 253.525a.61.61 0 1 0 0-1.22.61.61 0 0 0 0 1.22ZM260.305 234.68a.61.61 0 1 0 0-1.22.61.61 0 0 0 0 1.22ZM260.305 237.035a.61.61 0 1 0 0-1.22.61.61 0 0 0 0 1.22ZM260.305 239.39a.61.61 0 1 0 0-1.22.61.61 0 0 0 0 1.22ZM260.305 241.75a.61.61 0 1 0 0-1.22.61.61 0 0 0 0 1.22ZM260.305 244.105a.61.61 0 1 0 0-1.22.61.61 0 0 0 0 1.22ZM260.305 246.46a.61.61 0 1 0 0-1.22.61.61 0 0 0 0 1.22ZM260.305 248.815a.61.61 0 1 0 0-1.22.61.61 0 0 0 0 1.22ZM260.305 251.17a.61.61 0 1 0 0-1.22.61.61 0 0 0 0 1.22ZM260.305 253.525a.61.61 0 1 0 0-1.22.61.61 0 0 0 0 1.22ZM258.234 234.68a.61.61 0 1 0 0-1.221.61.61 0 0 0 0 1.221ZM258.234 237.035a.61.61 0 1 0 0-1.221.61.61 0 0 0 0 1.221ZM258.234 239.39a.61.61 0 1 0 0-1.221.61.61 0 0 0 0 1.221ZM258.234 241.75a.61.61 0 1 0 0-1.221.61.61 0 0 0 0 1.221ZM258.234 244.105a.61.61 0 1 0 0-1.221.61.61 0 0 0 0 1.221ZM258.234 246.46a.61.61 0 1 0 0-1.221.61.61 0 0 0 0 1.221ZM258.234 248.815a.61.61 0 1 0 0-1.221.61.61 0 0 0 0 1.221ZM258.234 251.17a.61.61 0 1 0 0-1.221.61.61 0 0 0 0 1.221ZM258.234 253.525a.61.61 0 1 0 0-1.221.61.61 0 0 0 0 1.221ZM256.165 234.68a.61.61 0 1 0 0-1.22.61.61 0 0 0 0 1.22ZM256.165 237.035a.61.61 0 1 0 0-1.22.61.61 0 0 0 0 1.22ZM256.165 239.39a.61.61 0 1 0 0-1.22.61.61 0 0 0 0 1.22ZM256.165 241.75a.61.61 0 1 0 0-1.22.61.61 0 0 0 0 1.22ZM256.165 244.105a.61.61 0 1 0 0-1.22.61.61 0 0 0 0 1.22ZM256.165 246.46a.61.61 0 1 0 0-1.22.61.61 0 0 0 0 1.22ZM256.165 248.815a.61.61 0 1 0 0-1.22.61.61 0 0 0 0 1.22ZM256.165 251.17a.61.61 0 1 0 0-1.22.61.61 0 0 0 0 1.22ZM256.165 253.525a.61.61 0 1 0 0-1.22.61.61 0 0 0 0 1.22Z" fill="#C9CACA" style="mix-blend-mode:multiply" opacity=".59"/></g><g style="mix-blend-mode:multiply" opacity=".59"><path d="M253.955 234.68a.61.61 0 1 0 0-1.22.61.61 0 0 0 0 1.22ZM253.955 237.035a.61.61 0 1 0 0-1.22.61.61 0 0 0 0 1.22ZM253.955 239.39a.61.61 0 1 0 0-1.22.61.61 0 0 0 0 1.22ZM253.955 241.75a.61.61 0 1 0 0-1.22.61.61 0 0 0 0 1.22ZM253.955 244.105a.61.61 0 1 0 0-1.22.61.61 0 0 0 0 1.22ZM253.955 246.46a.61.61 0 1 0 0-1.22.61.61 0 0 0 0 1.22ZM253.955 248.815a.61.61 0 1 0 0-1.22.61.61 0 0 0 0 1.22ZM253.955 251.17a.61.61 0 1 0 0-1.22.61.61 0 0 0 0 1.22ZM253.955 253.525a.61.61 0 1 0 0-1.22.61.61 0 0 0 0 1.22ZM251.885 234.68a.61.61 0 1 0 0-1.22.61.61 0 0 0 0 1.22ZM251.885 237.035a.61.61 0 1 0 0-1.22.61.61 0 0 0 0 1.22ZM251.885 239.39a.61.61 0 1 0 0-1.22.61.61 0 0 0 0 1.22ZM251.885 241.75a.61.61 0 1 0 0-1.22.61.61 0 0 0 0 1.22ZM251.885 244.105a.61.61 0 1 0 0-1.22.61.61 0 0 0 0 1.22ZM251.885 246.46a.61.61 0 1 0 0-1.22.61.61 0 0 0 0 1.22ZM251.885 248.815a.61.61 0 1 0 0-1.22.61.61 0 0 0 0 1.22ZM251.885 251.17a.61.61 0 1 0 0-1.22.61.61 0 0 0 0 1.22ZM251.885 253.525a.61.61 0 1 0 0-1.22.61.61 0 0 0 0 1.22ZM249.815 234.68a.61.61 0 1 0 0-1.22.61.61 0 0 0 0 1.22ZM249.815 237.035a.61.61 0 1 0 0-1.22.61.61 0 0 0 0 1.22ZM249.815 239.39a.61.61 0 1 0 0-1.22.61.61 0 0 0 0 1.22ZM249.815 241.75a.61.61 0 1 0 0-1.22.61.61 0 0 0 0 1.22ZM249.815 244.105a.61.61 0 1 0 0-1.22.61.61 0 0 0 0 1.22ZM249.815 246.46a.61.61 0 1 0 0-1.22.61.61 0 0 0 0 1.22ZM249.815 248.815a.61.61 0 1 0 0-1.22.61.61 0 0 0 0 1.22ZM249.815 251.17a.61.61 0 1 0 0-1.22.61.61 0 0 0 0 1.22ZM249.815 253.525a.61.61 0 1 0 0-1.22.61.61 0 0 0 0 1.22ZM247.745 234.68a.61.61 0 1 0 0-1.22.61.61 0 0 0 0 1.22ZM247.745 237.035a.61.61 0 1 0 0-1.22.61.61 0 0 0 0 1.22ZM247.745 239.39a.61.61 0 1 0 0-1.22.61.61 0 0 0 0 1.22ZM247.745 241.75a.61.61 0 1 0 0-1.22.61.61 0 0 0 0 1.22ZM247.745 244.105a.61.61 0 1 0 0-1.22.61.61 0 0 0 0 1.22ZM247.745 246.46a.61.61 0 1 0 0-1.22.61.61 0 0 0 0 1.22ZM247.745 248.815a.61.61 0 1 0 0-1.22.61.61 0 0 0 0 1.22ZM247.745 251.17a.61.61 0 1 0 0-1.22.61.61 0 0 0 0 1.22ZM247.745 253.525a.61.61 0 1 0 0-1.22.61.61 0 0 0 0 1.22ZM245.675 234.68a.61.61 0 1 0 0-1.22.61.61 0 0 0 0 1.22ZM245.675 237.035a.61.61 0 1 0 0-1.22.61.61 0 0 0 0 1.22ZM245.675 239.39a.61.61 0 1 0 0-1.22.61.61 0 0 0 0 1.22ZM245.675 241.75a.61.61 0 1 0 0-1.22.61.61 0 0 0 0 1.22ZM245.675 244.105a.61.61 0 1 0 0-1.22.61.61 0 0 0 0 1.22ZM245.675 246.46a.61.61 0 1 0 0-1.22.61.61 0 0 0 0 1.22ZM245.675 248.815a.61.61 0 1 0 0-1.22.61.61 0 0 0 0 1.22ZM245.675 251.17a.61.61 0 1 0 0-1.22.61.61 0 0 0 0 1.22ZM245.675 253.525a.61.61 0 1 0 0-1.22.61.61 0 0 0 0 1.22ZM243.605 234.68a.61.61 0 1 0 0-1.22.61.61 0 0 0 0 1.22ZM243.605 237.035a.61.61 0 1 0 0-1.22.61.61 0 0 0 0 1.22ZM243.605 239.39a.61.61 0 1 0 0-1.22.61.61 0 0 0 0 1.22ZM243.605 241.75a.61.61 0 1 0 0-1.22.61.61 0 0 0 0 1.22ZM243.605 244.105a.61.61 0 1 0 0-1.22.61.61 0 0 0 0 1.22ZM243.605 246.46a.61.61 0 1 0 0-1.22.61.61 0 0 0 0 1.22ZM243.605 248.815a.61.61 0 1 0 0-1.22.61.61 0 0 0 0 1.22ZM243.605 251.17a.61.61 0 1 0 0-1.22.61.61 0 0 0 0 1.22ZM243.605 253.525a.61.61 0 1 0 0-1.22.61.61 0 0 0 0 1.22ZM241.535 234.68a.61.61 0 1 0 0-1.22.61.61 0 0 0 0 1.22ZM241.535 237.035a.61.61 0 1 0 0-1.22.61.61 0 0 0 0 1.22ZM241.535 239.39a.61.61 0 1 0 0-1.22.61.61 0 0 0 0 1.22ZM241.535 241.75a.61.61 0 1 0 0-1.22.61.61 0 0 0 0 1.22ZM241.535 244.105a.61.61 0 1 0 0-1.22.61.61 0 0 0 0 1.22ZM241.535 246.46a.61.61 0 1 0 0-1.22.61.61 0 0 0 0 1.22ZM241.535 248.815a.61.61 0 1 0 0-1.22.61.61 0 0 0 0 1.22ZM241.535 251.17a.61.61 0 1 0 0-1.22.61.61 0 0 0 0 1.22ZM241.535 253.525a.61.61 0 1 0 0-1.22.61.61 0 0 0 0 1.22ZM239.465 234.68a.61.61 0 1 0 0-1.22.61.61 0 0 0 0 1.22ZM239.465 237.035a.61.61 0 1 0 0-1.22.61.61 0 0 0 0 1.22ZM239.465 239.39a.61.61 0 1 0 0-1.22.61.61 0 0 0 0 1.22ZM239.465 241.75a.61.61 0 1 0 0-1.22.61.61 0 0 0 0 1.22ZM239.465 244.105a.61.61 0 1 0 0-1.22.61.61 0 0 0 0 1.22ZM239.465 246.46a.61.61 0 1 0 0-1.22.61.61 0 0 0 0 1.22ZM239.465 248.815a.61.61 0 1 0 0-1.22.61.61 0 0 0 0 1.22ZM239.465 251.17a.61.61 0 1 0 0-1.22.61.61 0 0 0 0 1.22ZM239.465 253.525a.61.61 0 1 0 0-1.22.61.61 0 0 0 0 1.22Z" fill="#C9CACA" style="mix-blend-mode:multiply" opacity=".59"/></g><g style="mix-blend-mode:multiply" opacity=".59"><path d="M236.9 234.68a.61.61 0 1 0 0-1.22.61.61 0 0 0 0 1.22ZM236.9 237.035a.61.61 0 1 0 0-1.22.61.61 0 0 0 0 1.22ZM236.9 239.39a.61.61 0 1 0 0-1.22.61.61 0 0 0 0 1.22ZM236.9 241.75a.61.61 0 1 0 0-1.22.61.61 0 0 0 0 1.22ZM236.9 244.105a.61.61 0 1 0 0-1.22.61.61 0 0 0 0 1.22ZM236.9 246.46a.61.61 0 1 0 0-1.22.61.61 0 0 0 0 1.22ZM236.9 248.815a.61.61 0 1 0 0-1.22.61.61 0 0 0 0 1.22ZM236.9 251.17a.61.61 0 1 0 0-1.22.61.61 0 0 0 0 1.22ZM236.9 253.525a.61.61 0 1 0 0-1.22.61.61 0 0 0 0 1.22ZM234.83 234.68a.61.61 0 1 0 0-1.22.61.61 0 0 0 0 1.22ZM234.83 237.035a.61.61 0 1 0 0-1.22.61.61 0 0 0 0 1.22ZM234.83 239.39a.61.61 0 1 0 0-1.22.61.61 0 0 0 0 1.22ZM234.83 241.75a.61.61 0 1 0 0-1.22.61.61 0 0 0 0 1.22ZM234.83 244.105a.61.61 0 1 0 0-1.22.61.61 0 0 0 0 1.22ZM234.83 246.46a.61.61 0 1 0 0-1.22.61.61 0 0 0 0 1.22ZM234.83 248.815a.61.61 0 1 0 0-1.22.61.61 0 0 0 0 1.22ZM234.83 251.17a.61.61 0 1 0 0-1.22.61.61 0 0 0 0 1.22ZM234.83 253.525a.61.61 0 1 0 0-1.22.61.61 0 0 0 0 1.22ZM232.76 234.68a.61.61 0 1 0 0-1.22.61.61 0 0 0 0 1.22ZM232.76 237.035a.61.61 0 1 0 0-1.22.61.61 0 0 0 0 1.22ZM232.76 239.39a.61.61 0 1 0 0-1.22.61.61 0 0 0 0 1.22ZM232.76 241.75a.61.61 0 1 0 0-1.22.61.61 0 0 0 0 1.22ZM232.76 244.105a.61.61 0 1 0 0-1.22.61.61 0 0 0 0 1.22ZM232.76 246.46a.61.61 0 1 0 0-1.22.61.61 0 0 0 0 1.22ZM232.76 248.815a.61.61 0 1 0 0-1.22.61.61 0 0 0 0 1.22ZM232.76 251.17a.61.61 0 1 0 0-1.22.61.61 0 0 0 0 1.22ZM232.76 253.525a.61.61 0 1 0 0-1.22.61.61 0 0 0 0 1.22ZM230.69 234.68a.61.61 0 1 0-.001-1.221.61.61 0 0 0 .001 1.221ZM230.69 237.035a.61.61 0 1 0-.001-1.221.61.61 0 0 0 .001 1.221ZM230.69 239.39a.61.61 0 1 0-.001-1.221.61.61 0 0 0 .001 1.221ZM230.69 241.75a.61.61 0 1 0-.001-1.221.61.61 0 0 0 .001 1.221ZM230.69 244.105a.61.61 0 1 0-.001-1.221.61.61 0 0 0 .001 1.221ZM230.69 246.46a.61.61 0 1 0-.001-1.221.61.61 0 0 0 .001 1.221ZM230.69 248.815a.61.61 0 1 0-.001-1.221.61.61 0 0 0 .001 1.221ZM230.69 251.17a.61.61 0 1 0-.001-1.221.61.61 0 0 0 .001 1.221ZM230.69 253.525a.61.61 0 1 0-.001-1.221.61.61 0 0 0 .001 1.221ZM228.62 234.68a.61.61 0 1 0 0-1.22.61.61 0 0 0 0 1.22ZM228.62 237.035a.61.61 0 1 0 0-1.22.61.61 0 0 0 0 1.22ZM228.62 239.39a.61.61 0 1 0 0-1.22.61.61 0 0 0 0 1.22ZM228.62 241.75a.61.61 0 1 0 0-1.22.61.61 0 0 0 0 1.22ZM228.62 244.105a.61.61 0 1 0 0-1.22.61.61 0 0 0 0 1.22ZM228.62 246.46a.61.61 0 1 0 0-1.22.61.61 0 0 0 0 1.22ZM228.62 248.815a.61.61 0 1 0 0-1.22.61.61 0 0 0 0 1.22ZM228.62 251.17a.61.61 0 1 0 0-1.22.61.61 0 0 0 0 1.22ZM228.62 253.525a.61.61 0 1 0 0-1.22.61.61 0 0 0 0 1.22ZM226.55 234.68a.61.61 0 1 0 0-1.22.61.61 0 0 0 0 1.22ZM226.55 237.035a.61.61 0 1 0 0-1.22.61.61 0 0 0 0 1.22ZM226.55 239.39a.61.61 0 1 0 0-1.22.61.61 0 0 0 0 1.22ZM226.55 241.75a.61.61 0 1 0 0-1.22.61.61 0 0 0 0 1.22ZM226.55 244.105a.61.61 0 1 0 0-1.22.61.61 0 0 0 0 1.22ZM226.55 246.46a.61.61 0 1 0 0-1.22.61.61 0 0 0 0 1.22ZM226.55 248.815a.61.61 0 1 0 0-1.22.61.61 0 0 0 0 1.22ZM226.55 251.17a.61.61 0 1 0 0-1.22.61.61 0 0 0 0 1.22ZM226.55 253.525a.61.61 0 1 0 0-1.22.61.61 0 0 0 0 1.22ZM224.48 234.68a.61.61 0 1 0 0-1.22.61.61 0 0 0 0 1.22ZM224.48 237.035a.61.61 0 1 0 0-1.22.61.61 0 0 0 0 1.22ZM224.48 239.39a.61.61 0 1 0 0-1.22.61.61 0 0 0 0 1.22ZM224.48 241.75a.61.61 0 1 0 0-1.22.61.61 0 0 0 0 1.22ZM224.48 244.105a.61.61 0 1 0 0-1.22.61.61 0 0 0 0 1.22ZM224.48 246.46a.61.61 0 1 0 0-1.22.61.61 0 0 0 0 1.22ZM224.48 248.815a.61.61 0 1 0 0-1.22.61.61 0 0 0 0 1.22ZM224.48 251.17a.61.61 0 1 0 0-1.22.61.61 0 0 0 0 1.22ZM224.48 253.525a.61.61 0 1 0 0-1.22.61.61 0 0 0 0 1.22ZM222.41 234.68a.61.61 0 1 0 0-1.22.61.61 0 0 0 0 1.22ZM222.41 237.035a.61.61 0 1 0 0-1.22.61.61 0 0 0 0 1.22ZM222.41 239.39a.61.61 0 1 0 0-1.22.61.61 0 0 0 0 1.22ZM222.41 241.75a.61.61 0 1 0 0-1.22.61.61 0 0 0 0 1.22ZM222.41 244.105a.61.61 0 1 0 0-1.22.61.61 0 0 0 0 1.22ZM222.41 246.46a.61.61 0 1 0 0-1.22.61.61 0 0 0 0 1.22ZM222.41 248.815a.61.61 0 1 0 0-1.22.61.61 0 0 0 0 1.22ZM222.41 251.17a.61.61 0 1 0 0-1.22.61.61 0 0 0 0 1.22ZM222.41 253.525a.61.61 0 1 0 0-1.22.61.61 0 0 0 0 1.22Z" fill="#C9CACA" style="mix-blend-mode:multiply" opacity=".59"/></g></g><path d="M328.215 89.29H293.95a5.46 5.46 0 1 0 0 10.92h34.265a5.46 5.46 0 0 0 0-10.92ZM349.735 89.555h-10.01v10.01h10.01v-10.01ZM339.78 89.605l9.77 9.77M339.74 99.475l9.95-9.83M200.5 122.865s-2.76-10.35 2.07-20 10.35-10.58 14.95-10.12c4.6.46 6.665 7.5 4.255 10.81-2.41 3.31-6.67 2.415-6.21-2.07.46-4.485 11.5-15.065 24.72-9.085" stroke="#231815" stroke-width=".215" stroke-miterlimit="10"/><path d="M232.84 151.735s-.64-6.285 6.285-6.285h27.805v1.29" fill="#2F54EB"/><path d="M232.84 151.735s-.64-6.285 6.285-6.285h27.805v1.29" stroke="#231815" stroke-width=".26" stroke-miterlimit="10"/><path d="M240.155 152.42a2.405 2.405 0 1 0 0-4.81 2.405 2.405 0 0 0 0 4.81Z" fill="#F66"/><path d="M257.065 152.42a2.405 2.405 0 1 0 0-4.81 2.405 2.405 0 0 0 0 4.81Z" fill="#F8DC29"/><path d="M249.345 153.17a2.665 2.665 0 1 0 0-5.33 2.665 2.665 0 0 0 0 5.33Z" fill="#F5F8FE" stroke="#231815" stroke-width=".285" stroke-miterlimit="10"/><path d="M156.92 68.44v175.845h108V68.44h-108Zm100.86 169.39h-94V75.09h94v162.74Z" fill="#fff" stroke="#231815" stroke-width=".46" stroke-miterlimit="10"/><path d="M267.05 68.215h-2.77V244.55h2.77V68.215Z" fill="#231815"/><path d="M121.395 121.79a14.04 14.04 0 0 0-2.46-9.41c-3.22-4.655-9.045-4.09-12.53-2.355-4.5 2.23-7.54 7.235-11.325 6.315 0 0 2.775 4.35 7.37 5 4.595.65 17.245 1.05 18.945.45Z" stroke="#231815" stroke-width=".485" stroke-miterlimit="10"/><path d="m139.42 127.55 43.43 1.705-1.615 21.205-35.59-1.395-6.225-21.515Z" fill="#2F54EB" stroke="#231815" stroke-width=".43" stroke-miterlimit="10"/><path d="m133.885 117.655-.275 8.1s-5.29.08-6.27-.655c-.98-.735 0-9.47 0-9.47l6.545 2.025Z" fill="#F9D3DC" stroke="#231815" stroke-width=".49" stroke-miterlimit="10"/><path d="M138 98.155a21.005 21.005 0 0 1 .58 8.735l3.97 5.35-3.84.525s.815 4.845-3.1 6.035c-3.915 1.19-6.525-1.535-7.905-2.21 0 0 .41-2.06-1.73-4.39 0 0-4.645-.79-4.5-3.795a8.497 8.497 0 0 1 2.2-5.06S130.5 96.94 138 98.155Z" fill="#F9D3DC" stroke="#231815" stroke-width=".49" stroke-miterlimit="10"/><path d="M136.57 108.56c.282 0 .51-.425.51-.95 0-.525-.228-.95-.51-.95-.282 0-.51.425-.51.95 0 .525.228.95.51.95Z" fill="#231815"/><path d="M136.93 114.92a6.198 6.198 0 0 1-3.565-1.955" stroke="#231815" stroke-width=".49" stroke-miterlimit="10"/><path d="M126.285 111.82a25.887 25.887 0 0 1 1.56 3.945c.31 1.255-.82 1.34-.84 2.45 0 0-6.8-10.055-7.57-12.255-.77-2.2-2.365-6.405-.215-8.965 2.15-2.56 5.585-2.755 7.065-1.275 0 0 1.2-6.42 7.665-4.11 0 0 .885-3.335 4.26-3.82 3.375-.485 5.62 1.455 6.16 4.58s-2.375 7.195-7.5 5.305c0 0-2.09 5.845-8 3.19 0 0 0 2.5-2.75 4.04 0 0 1.36 1.06 1.415 1.15.055.09-5.085-.31-4.76 2.925.325 3.235 3.51 2.84 3.51 2.84Z" fill="#231815"/><path d="M99.315 164s.83-1-2.465 10.665c-1.755 6.215-7.5 23.5-17.645 30.585-7.335 5.135-19.07 6.845-19.07 6.845l.29 30.54s50.955-8.38 61.815-55.5l2.525-17.08L99.315 164Z" fill="#fff" stroke="#231815" stroke-width=".43" stroke-miterlimit="10"/><path d="M136.93 165s8.89-1.605 26.175 5.5c10.66 4.37 32.105 27.59 32.105 27.59l-15.735 23s-15.955-17.685-29.5-25.2c-2.205-1.225-18.565-5.575-30.725-6.19 0 0-20.61-1.87-19.945-23.475" fill="#fff"/><path d="M136.93 165s8.89-1.605 26.175 5.5c10.66 4.37 32.105 27.59 32.105 27.59l-15.735 23s-15.955-17.685-29.5-25.2c-2.205-1.225-18.565-5.575-30.725-6.19 0 0-20.61-1.87-19.945-23.475" stroke="#231815" stroke-width=".43" stroke-miterlimit="10"/><path d="M102.45 121.35s-16.13 25.235-18.64 29.375c-2.51 4.14.57 11.8 6.61 11.835 6.04.035 7.28-3.56 7.28-3.56l15.655-33.835-10.905-3.815Z" fill="#F66" stroke="#231815" stroke-width=".43" stroke-miterlimit="10"/><path d="M99.72 120.195 82.625 147.23s-1.345 2.105 1.185 3.5l18.64-29.38-2.73-1.155Z" fill="#fff" stroke="#231815" stroke-width=".43" stroke-miterlimit="10"/><path d="M110.625 128.12a8.155 8.155 0 1 0 0-16.31 8.155 8.155 0 0 0 0 16.31Z" fill="#F66" stroke="#231815" stroke-width=".43" stroke-miterlimit="10"/><path d="M115.5 123.625a82.202 82.202 0 0 0-20.375 24.32c-7.77 14.275 1.815 25.76 18.935 21.645 14.5-3.5 20.95-3.835 20.95-3.835l-4.345-20.625 11.38-3.77s-2.76-9.77-10.05-15.795c-7.29-6.025-14.07-3.44-16.495-1.94Z" fill="#2F54EB" stroke="#231815" stroke-width=".43" stroke-miterlimit="10"/><path d="m130.685 145.13-22 4.57M119.855 147.345l5.615-7.225" stroke="#fff" stroke-width=".525" stroke-miterlimit="10"/><path d="M146.85 142.55s-1.66-10.34-9.455-16.915c-10-8.41-16.115-7.15-16.115-7.15l.115 3.305s6.165 0 10.625 4.145c8.655 8.04 10.045 15.425 10.045 15.425s1.155 5.5 4.785 1.19ZM95.005 131.355l4.555 2.64-5.57 9.425-4.81-2.665 5.825-9.4Z" fill="#fff" stroke="#231815" stroke-width=".43" stroke-miterlimit="10"/><path d="M130.685 145.13s2.26-.6 3.79-1.215c1.53-.615 2.315-2.34 2.305-5.525-.01-3.185.425-4.865 2.285-4.5 1.86.365 3 6.69 3.1 8.165.1 1.475 2.72 3.65 4.685.5a19.39 19.39 0 0 0-1-4.5 18.264 18.264 0 0 1 3.335.265c.92.27 3.41 2.77 1.735 5.61 0 0 4 1.11 1.185 5.895 0 0 3.78 2.555-.72 6.815 0 0 1.945.38 1.36 2.645s-2.19 2.35-6 3.41-11.815 2.715-11.815 2.715l-4.245-20.28Z" fill="#F9D3DC" stroke="#231815" stroke-width=".43" stroke-miterlimit="10"/><path d="M150.93 143.93s-1.245 3.23-5.445 4.095M152.115 149.825a9.996 9.996 0 0 1-5.15 2.895M151.395 156.64s-2.095 1.135-3.11 1.18" stroke="#231815" stroke-width=".485" stroke-miterlimit="10"/><path d="m203.67 197.5 6.6 5.425s1.835-6.35 5.36-8.34c5.595-3.16 9.165 3.5 9.165 3.5L202.39 224.9l-10.16-9.84 11.44-17.56Z" fill="#2F54EB" stroke="#231815" stroke-width=".43" stroke-miterlimit="10"/><path d="m206.105 199.51-1.695 2.525M207.725 200.765l-1.7 2.53" stroke="#fff" stroke-width=".36" stroke-miterlimit="10"/><path d="M206.5 198.54s1.3-6.8 3.2-5.31c2.08 1.615-3.2 5.31-3.2 5.31Z" stroke="#000" stroke-width=".415" stroke-linecap="round" stroke-linejoin="round"/><path d="M206.5 198.54s3.435-3.61 4.295-2.065c.86 1.545-3.01 2.215-4.295 2.065Z" stroke="#000" stroke-width=".415" stroke-linecap="round" stroke-linejoin="round"/><path d="m224.795 198.095 2.36 2.485-22.635 26.36-2.13-2.04 22.405-26.805Z" fill="#231815"/><path d="M208.155 217.845s-5.43-4.605-11.735 1.235M222.155 198.305s-3.125-4.15-6.39-1.08" stroke="#fff" stroke-width=".36" stroke-miterlimit="10"/><path d="m55.565 240.255-8.535-.33s2.37 6.165.765 9.88c-2.55 5.895-9.415 2.755-9.415 2.755l1.66-34.9 14.04 1.705 1.485 20.89Z" fill="#2F54EB" stroke="#231815" stroke-width=".43" stroke-miterlimit="10"/><path d="m52.42 240.14-.175-3.04M50.37 240.115l-.175-3.04" stroke="#fff" stroke-width=".36" stroke-miterlimit="10"/><path d="M52.685 241.155s3.07 6.205.655 6.165c-2.625-.035-.655-6.165-.655-6.165Z" stroke="#000" stroke-width=".415" stroke-linecap="round" stroke-linejoin="round"/><path d="M52.685 241.155s-.555 4.95-2.175 4.24c-1.62-.71 1.065-3.585 2.175-4.24Z" stroke="#000" stroke-width=".415" stroke-linecap="round" stroke-linejoin="round"/><path d="m38.38 252.56-3.38-.555 2.11-34.68 2.93.335-1.66 34.9Z" fill="#231815"/><path d="M39.705 226.77s7.115.385 8.605-8.075M40.36 250.8s5 1.415 5.74-3" stroke="#fff" stroke-width=".36" stroke-miterlimit="10"/><path d="m193.59 200.295 5.56 4.15-6.92 10.615-5.82-4.15 7.18-10.615Z" fill="#F9D3DC" stroke="#231815" stroke-width=".43" stroke-miterlimit="10"/><path d="M160.545 169.47a8.756 8.756 0 0 0 .717 5.237 8.758 8.758 0 0 0 3.598 3.873c5.57 3.295 9.245-.7 9.245-.7s-8.285-7.09-13.56-8.41Z" fill="#2F54EB" stroke="#231815" stroke-width=".43" stroke-miterlimit="10"/><path d="m54.315 222.085 5.705.11.22 11.19-5.155.44-.77-11.74Z" fill="#F9D3DC" stroke="#231815" stroke-width=".43" stroke-miterlimit="10"/><path d="M112.165 210.16s-14.36-1.76-10.42 12c0-.02 7.905-7.45 10.42-12Z" fill="#2F54EB" stroke="#231815" stroke-width=".43" stroke-miterlimit="10"/><path d="M99.125 167.21s-1.605 25.465 20.765 28.185l1.61-5.44s-20.89.37-22.375-22.745ZM60.02 222.195l-2.935 11.39 3.155-.2-.22-11.19ZM130.685 145.13l8.43 19.38-4.18.9-4.25-20.28Z" fill="#231815"/><path d="M187.37 130.82c1.43-1.25 1.41-4.075 1.47-5.535.06-1.46.905-3.28 2.85-3.2 1.945.08 2.38 1.455 2.29 3.79l-.38 3.79c1.809.147 3.626.18 5.44.1 2.34-.045 7.645-.8 8.455 1.5.96 2.735-2.14 3.475-2.14 3.475s5.97-.62 6.05 2.465c.085 3.41-7.835 2.36-7.835 2.36s5.94.395 5.975 2.47c.05 2.9-3.69 2.59-3.69 2.59s1.345 1.925-.39 2.595c-2.875 1.115-8.665.615-12.5.465l-11.5.175 1.085-15.775a5.843 5.843 0 0 0 4.82-1.265Z" fill="#F9D3DC" stroke="#231815" stroke-width=".42" stroke-miterlimit="10"/><path d="m199.315 134.685 6.175.04M197.705 139.405l6.28.16M198.74 144.52l6.97.065" stroke="#231815" stroke-width=".42" stroke-miterlimit="10"/><path d="M12.98 263.025h370.89" stroke="#231815" stroke-width=".515" stroke-miterlimit="10"/><path d="M78 157s-.68 9.115 10.255 10.24" stroke="#000" stroke-width=".4" stroke-miterlimit="10"/><path d="m127.875 116.875 5.79 5.745.19-3.41s-4.485-.84-5.98-2.335ZM182.545 132.07l2.615 15.66-3.7.115 1.085-15.775ZM193.59 200.295l-4.775 12.3-2.405-1.685 7.18-10.615Z" fill="#231815"/><path d="M327.5 130.525s4.175 5.685 5 11.535" stroke="#231815" stroke-width=".45" stroke-miterlimit="10"/><path d="M292.435 119.2s7.25.41 11.24-4.235M324.5 143.39s4.115 12.14-8.5 12.405M237.715 125.42s-5.745 8.705 1.725 13.465M114.33 128.66s7.25-5.59 14.705-1.24" stroke="#fff" stroke-width=".525" stroke-miterlimit="10"/><path d="M90.84 199.135s-6.095 10.11-16.04 12.835" stroke="#000" stroke-width=".4" stroke-miterlimit="10"/><path d="M283.09 200.25h-12.265c-.58 0-1.05.47-1.05 1.05v.205c0 .58.47 1.05 1.05 1.05h12.265c.58 0 1.05-.47 1.05-1.05v-.205c0-.58-.47-1.05-1.05-1.05ZM283.09 205.73h-12.265c-.58 0-1.05.47-1.05 1.05v.205c0 .58.47 1.05 1.05 1.05h12.265c.58 0 1.05-.47 1.05-1.05v-.205c0-.58-.47-1.05-1.05-1.05ZM274.08 211.205h-3.155a1.15 1.15 0 0 0-1.15 1.15v.005c0 .635.515 1.15 1.15 1.15h3.155a1.15 1.15 0 0 0 1.15-1.15v-.005a1.15 1.15 0 0 0-1.15-1.15Z" fill="#E1E5EA"/><path d="M156.97 237.765h-27.8v15.805H58.2v9.37" stroke="#231815" stroke-width=".46" stroke-miterlimit="10"/><path d="m275.41 97.525 1.55.58M288.125 101.99l2.095-1.54" stroke="#231815" stroke-width=".39" stroke-miterlimit="10"/><path d="M331.42 221.205c7.746 0 14.025-6.279 14.025-14.025s-6.279-14.025-14.025-14.025-14.025 6.279-14.025 14.025 6.279 14.025 14.025 14.025Z" fill="#F66" stroke="#231815" stroke-width=".43" stroke-miterlimit="10"/><path d="m317.405 205.91 13.655.55 10.35-9.58s-7.035-7.665-17.4-2c-6.825 3.76-6.605 11.03-6.605 11.03Z" fill="#fff" stroke="#231815" stroke-width=".405" stroke-miterlimit="10"/><path d="M330.905 206.725v-13.76s5.065-.775 10.35 4.18l-10.35 9.58Z" fill="#49E5DB" stroke="#231815" stroke-width=".43" stroke-miterlimit="10"/><path d="m275.93 98.86-2.74 4.365 2 .445M274.82 105.815a5.422 5.422 0 0 0 4-2.22" stroke="#231815" stroke-width=".45" stroke-miterlimit="10"/><path d="M109.62 114s6.12.305 7.03 6.275" stroke="#fff" stroke-width=".43" stroke-miterlimit="10"/></svg>