<?xml version="1.0" standalone="no"?><!DOCTYPE svg PUBLIC "-//W3C//DTD SVG 1.1//EN" "http://www.w3.org/Graphics/SVG/1.1/DTD/svg11.dtd"><svg t="1680440029966" class="icon" viewBox="0 0 1024 1024" version="1.1" xmlns="http://www.w3.org/2000/svg" p-id="4586" xmlns:xlink="http://www.w3.org/1999/xlink" width="200" height="200"><path d="M571.648 511.94c-10.257 0-20.517 9.525-20.517 21.25 0 9.527 10.255 19.053 20.517 19.053 15.393 0 26.385-9.527 26.385-19.053 0-11.724-10.99-21.25-26.385-21.25zM504.225 413c16.123 0 26.385-10.257 26.385-25.651 0-16.123-10.261-25.649-26.385-25.649-15.39 0-30.048 9.527-30.048 25.649-0.001 15.396 14.659 25.651 30.048 25.651z m8.062-350.508c-248.427 0-449.813 201.386-449.813 449.813 0 248.425 201.386 449.812 449.813 449.812 248.425 0 449.812-201.386 449.812-449.812 0.001-248.427-201.385-449.813-449.812-449.813z m-85.012 563.773c-27.119 0-46.906-4.394-72.556-11.725L280.7 651.92l21.257-63.031c-52.035-36.64-82.818-82.811-82.818-139.243 0-99.67 93.808-175.889 208.137-175.889 101.135 0 191.279 60.097 208.867 145.113-7.328-1.469-13.926-2.199-19.788-2.199-99.67 0-176.619 74.75-176.619 164.894 0 15.388 2.199 29.313 5.863 43.972-5.863 0.728-12.461 0.728-18.324 0.728z m305.607 71.82l14.655 52.77-55.697-31.512c-21.252 4.394-41.773 10.99-63.025 10.99-98.206 0-175.889-67.422-175.889-150.968 0-83.547 77.685-150.97 175.889-150.97 93.072 0 176.619 67.423 176.619 150.97 0 46.9-31.512 88.673-72.552 118.721zM359.117 361.7c-15.39 0-31.512 9.527-31.512 25.649 0 15.395 16.122 25.656 31.512 25.656 14.66 0 26.385-10.261 26.385-25.656 0-16.122-11.725-25.649-26.385-25.649z m327.595 150.24c-10.995 0-20.522 9.525-20.522 21.25 0 9.527 9.527 19.053 20.522 19.053 14.655 0 25.649-9.527 25.649-19.053 0-11.724-10.994-21.25-25.649-21.25z m0 0z" fill="#24C891" p-id="4587"></path></svg>